<?xml version="1.0" encoding="UTF-8"?>
<svg version="1.1" xmlns="http://www.w3.org/2000/svg" width="300" height="300">
<path d="M0 0 C0.8493663 0.31698853 1.6987326 0.63397705 2.57383728 0.96057129 C5.33403005 1.99255254 8.09086816 3.03318034 10.84765625 4.07421875 C12.77931036 4.7988193 14.71111559 5.52301708 16.64306641 6.24682617 C30.42464499 11.41750251 44.1831131 16.64945485 57.92167664 21.93331909 C64.06675455 24.2964987 70.22015226 26.63483645 76.38671875 28.94140625 C77.75149275 29.45329475 79.11623938 29.96525621 80.48095703 30.47729492 C83.03719869 31.43628809 85.59563169 32.38849837 88.15576172 33.3371582 C89.84403076 33.97077271 89.84403076 33.97077271 91.56640625 34.6171875 C92.55447266 34.98481201 93.54253906 35.35243652 94.56054688 35.73120117 C96.91015625 36.76171875 96.91015625 36.76171875 98.91015625 38.76171875 C99.16463184 40.73512173 99.16463184 40.73512173 99.17085266 43.20225525 C99.17793747 44.1367601 99.18502228 45.07126495 99.19232178 46.03408813 C99.18984436 47.06303192 99.18736694 48.09197571 99.18481445 49.15209961 C99.18992538 50.23377914 99.19503632 51.31545868 99.20030212 52.42991638 C99.214269 56.02885388 99.21323378 59.627601 99.2109375 63.2265625 C99.2148251 65.73409598 99.2191599 68.2416288 99.22392273 70.74916077 C99.23140343 76.02444066 99.23122196 81.2996714 99.22583008 86.57495117 C99.22049721 91.96076684 99.22737164 97.34639318 99.24633789 102.73217773 C99.26899281 109.25088498 99.27656006 115.76943499 99.27266502 122.2881794 C99.27317395 124.7593395 99.27832985 127.23050367 99.28847694 129.70164299 C99.42013586 166.30373967 92.01853683 200.55508889 65.91015625 227.76171875 C64.75534801 229.12918975 63.60845064 230.50341469 62.47265625 231.88671875 C61.62703125 232.83546875 60.78140625 233.78421875 59.91015625 234.76171875 C59.25015625 234.76171875 58.59015625 234.76171875 57.91015625 234.76171875 C57.58015625 235.75171875 57.25015625 236.74171875 56.91015625 237.76171875 C53.93727077 240.53603363 50.71000893 242.99396919 47.51025391 245.50146484 C45.96902778 246.71535091 44.44505053 247.95103987 42.921875 249.1875 C27.25108083 261.67236397 -0.63601359 283.7761821 -21.08984375 281.76171875 C-23.7188956 280.91163989 -25.99316367 280.05246163 -28.46484375 278.88671875 C-29.14474365 278.57645752 -29.82464355 278.26619629 -30.52514648 277.9465332 C-48.27327973 269.66891527 -65.10734035 259.3904754 -80.08984375 246.76171875 C-81.20167986 245.84748224 -82.31366951 244.93343244 -83.42578125 244.01953125 C-109.18952722 222.64260433 -128.40336017 193.67635307 -132.08984375 159.76171875 C-133.18090663 147.01463519 -133.23725229 134.30067636 -133.22265625 121.515625 C-133.2233317 119.40770964 -133.22430372 117.29979436 -133.22555542 115.19187927 C-133.22701881 110.80572762 -133.22492044 106.41959651 -133.22021484 102.03344727 C-133.21449357 96.42976292 -133.21782032 90.82612622 -133.22378731 85.22244358 C-133.22740873 80.88231551 -133.22624749 76.54219866 -133.22365952 72.20207024 C-133.2229959 70.13573132 -133.22379874 68.06939136 -133.22613907 66.00305367 C-133.22869441 63.11602209 -133.22478569 60.22906694 -133.21923828 57.34204102 C-133.22126251 56.50186432 -133.22328674 55.66168762 -133.22537231 54.79605103 C-133.18557998 43.54896034 -133.18557998 43.54896034 -132.08984375 38.76171875 C-130.03222656 36.90014648 -130.03222656 36.90014648 -127.08984375 35.76171875 C-126.5031189 35.51527618 -125.91639404 35.26883362 -125.31188965 35.0149231 C-123.22667798 34.14864749 -121.12414726 33.34440021 -119.01171875 32.546875 C-118.22359802 32.24499771 -117.43547729 31.94312042 -116.62347412 31.63209534 C-114.95425214 30.99323736 -113.28425078 30.35641249 -111.61352539 29.72149658 C-109.17322205 28.79342823 -106.73559509 27.85869609 -104.29882812 26.92138672 C-99.31564428 25.0057315 -94.3283861 23.10087123 -89.33984375 21.19921875 C-88.44796356 20.85910767 -87.55608337 20.51899658 -86.63717651 20.1685791 C-71.6060423 14.4408162 -56.53581043 8.824431 -41.43652344 3.27905273 C-40.32103622 2.86918373 -40.32103622 2.86918373 -39.18301392 2.45103455 C-37.75045541 1.92690995 -36.31670975 1.4060165 -34.88168335 0.88868713 C-31.85352007 -0.20490085 -28.87287537 -1.32997959 -25.90576172 -2.58398438 C-24.97521973 -2.97005859 -24.04467773 -3.35613281 -23.0859375 -3.75390625 C-21.94209595 -4.26099121 -21.94209595 -4.26099121 -20.77514648 -4.77832031 C-13.81039891 -5.97130008 -6.42498987 -2.43852248 0 0 Z M-53.05078125 57.21875 C-63.51247018 70.26579883 -65.65710871 87.51277358 -65.08984375 103.76171875 C-64.75984375 104.75171875 -64.42984375 105.74171875 -64.08984375 106.76171875 C-65.12109375 106.72046875 -66.15234375 106.67921875 -67.21484375 106.63671875 C-72.40920953 106.77822117 -72.40920953 106.77822117 -77.08984375 108.76171875 C-80.20309687 114.80149543 -80.5234342 121.11582134 -80.453125 127.7734375 C-80.4536235 128.70412552 -80.45412201 129.63481354 -80.45463562 130.59370422 C-80.45230876 132.55264431 -80.44266295 134.51158817 -80.42602539 136.47045898 C-80.40254467 139.42394665 -80.40546221 142.37652133 -80.41210938 145.33007812 C-80.38560195 163.37308346 -80.27238283 181.93085807 -67.08984375 195.76171875 C-52.78588359 209.3383589 -30.13770597 209.02385918 -11.62109375 208.703125 C5.06189102 208.21416941 22.57431932 206.51162455 35.38671875 194.51171875 C48.16618695 179.83171425 47.09708931 161.12104853 47.09545898 142.83374023 C47.09766013 140.06934529 47.11592073 137.30534113 47.13476562 134.54101562 C47.13769808 132.75651176 47.13968386 130.97200603 47.140625 129.1875 C47.15140327 127.96840691 47.15140327 127.96840691 47.16239929 126.72468567 C47.14055082 121.17535229 46.3170735 116.12656255 44.91015625 110.76171875 C44.25015625 110.76171875 43.59015625 110.76171875 42.91015625 110.76171875 C42.58015625 109.77171875 42.25015625 108.78171875 41.91015625 107.76171875 C39.02804323 106.80101441 37.21165581 106.65589992 34.22265625 106.69921875 C33.41441406 106.70824219 32.60617188 106.71726562 31.7734375 106.7265625 C31.15855469 106.73816406 30.54367188 106.74976562 29.91015625 106.76171875 C29.92062988 106.17793457 29.93110352 105.59415039 29.94189453 104.99267578 C29.98403733 102.29073574 30.0096643 99.58886524 30.03515625 96.88671875 C30.06029297 95.51 30.06029297 95.51 30.0859375 94.10546875 C30.19483071 78.64263251 25.28720787 65.45141519 14.66015625 54.07421875 C4.68551732 44.64643503 -6.73235783 41.25870396 -20.24316406 41.41015625 C-33.41585935 41.86286941 -44.04913472 47.72408043 -53.05078125 57.21875 Z " fill="#4D9B73" transform="translate(168.08984375,13.23828125)"/>
<path d="M0 0 C0.33 0.66 0.66 1.32 1 2 C3.08994191 2.31776657 3.08994191 2.31776657 5.5625 2.375 C12.80045736 3.00393931 17.68225732 5.33755915 22.8125 10.5 C31.59698808 21.53074988 29 35.51173832 29 49 C9.86 49 -9.28 49 -29 49 C-29 18.64 -29 18.64 -21.2421875 10.0546875 C-15.89133054 5.03957058 -10.44705881 1.87243609 -3 1.8125 C-2.01 1.874375 -1.02 1.93625 0 2 C0 1.34 0 0.68 0 0 Z " fill="#3F906D" transform="translate(151,71)"/>
<path d="M0 0 C4.29418371 3.83735566 5.72254967 7.46438191 7 13 C7.33 13.66 7.66 14.32 8 15 C8.53621767 19.46848062 8.28113875 21.89639595 5.5625 25.375 C1.22160165 31.5307372 2.09051449 39.75884066 2 47 C3.485 47.495 3.485 47.495 5 48 C5 49.65 5 51.3 5 53 C-5.89 53.495 -5.89 53.495 -17 54 C-17.33 52.35 -17.66 50.7 -18 49 C-17.34 48.34 -16.68 47.68 -16 47 C-15.52596964 43.93911824 -15.62962399 40.84344753 -15.625 37.75 C-15.60050781 36.90308594 -15.57601562 36.05617187 -15.55078125 35.18359375 C-15.52423194 29.49319109 -16.4966727 26.65285658 -20 22 C-20.59281364 19.08617024 -20.30240643 17.02406425 -20 14 C-19.34 13.34 -18.68 12.68 -18 12 C-17.54220857 10.55404902 -17.13046241 9.09319467 -16.75 7.625 C-15.64252038 4.22580512 -14.991643 2.991643 -12.375 0.375 C-7.92009761 -1.43996023 -4.56075356 -1.5819588 0 0 Z " fill="#519D70" transform="translate(158,143)"/>
<path d="M0 0 C0.66 0 1.32 0 2 0 C2.02337888 14.49935829 2.04093717 28.99871365 2.05181217 43.49808693 C2.05696453 50.23066463 2.06398702 56.96323061 2.07543945 63.69580078 C2.08648563 70.19265067 2.09228399 76.68949294 2.09487724 83.18635178 C2.09672542 85.6654619 2.1003344 88.14457136 2.10573006 90.6236763 C2.112985 94.09499809 2.11398905 97.5662695 2.11352539 101.03759766 C2.11712067 102.06330872 2.12071594 103.08901978 2.12442017 104.14581299 C2.11757498 108.87952399 1.99109364 113.34548334 1 118 C0.67 118 0.34 118 0 118 C-1.00917517 105.2052701 -1.14739268 92.47725646 -1.1328125 79.6484375 C-1.1334878 77.53333525 -1.13445971 75.41823309 -1.13571167 73.3031311 C-1.13717478 68.90439097 -1.13507697 64.50567133 -1.13037109 60.10693359 C-1.12463929 54.47604962 -1.12798327 48.84521297 -1.13394356 43.21433067 C-1.13755684 38.86145673 -1.13640765 34.50859403 -1.13381577 30.15571976 C-1.13315044 28.07852803 -1.13396108 26.00133527 -1.13629532 23.92414474 C-1.13883829 21.02931758 -1.13495959 18.13456752 -1.12939453 15.23974609 C-1.13141876 14.38878357 -1.13344299 13.53782104 -1.13552856 12.66107178 C-1.1201157 8.32724909 -0.86664995 4.26797816 0 0 Z " fill="#396B4B" transform="translate(36,55)"/>
<path d="M0 0 C1.62723299 0.45034123 3.25173664 0.91055354 4.875 1.375 C5.77992188 1.63023438 6.68484375 1.88546875 7.6171875 2.1484375 C10 3 10 3 12 5 C12.25168228 7.01809597 12.25168228 7.01809597 12.25396729 9.54820251 C12.26242676 10.98464363 12.26242676 10.98464363 12.27105713 12.45010376 C12.26700867 13.50418427 12.26296021 14.55826477 12.25878906 15.64428711 C12.2622937 16.75166733 12.26579834 17.85904755 12.26940918 18.99998474 C12.27824169 22.67583407 12.27237151 26.35149232 12.265625 30.02734375 C12.26697131 32.57320696 12.26891155 35.11906992 12.27142334 37.66493225 C12.27437675 43.00736164 12.27026004 48.34972202 12.26074219 53.69213867 C12.24986284 59.87013873 12.25337869 66.04800674 12.264395 72.22600359 C12.27456256 78.16551243 12.27348867 84.10498022 12.26763153 90.04449654 C12.26629448 92.57353293 12.26794469 95.10257267 12.27259064 97.63160515 C12.2776536 101.16326779 12.26994836 104.69467482 12.25878906 108.22631836 C12.26283752 109.27837463 12.26688599 110.33043091 12.27105713 111.41436768 C12.26541748 112.37481491 12.25977783 113.33526215 12.25396729 114.32481384 C12.25321323 115.16012603 12.25245918 115.99543821 12.25168228 116.85606289 C12 119 12 119 10 122 C9.99576806 121.4143181 9.99153612 120.82863621 9.98717594 120.22520638 C9.88396202 105.98754559 9.77533826 91.74993474 9.66066074 77.51236153 C9.60533509 70.62723626 9.55185418 63.74210581 9.50268555 56.85693359 C9.45526606 50.21741797 9.40274617 43.57795555 9.34705925 36.93850327 C9.32661509 34.40028065 9.30790549 31.86204347 9.29092598 29.32379532 C9.26692756 25.77977462 9.23686678 22.23585494 9.20532227 18.69189453 C9.1995668 17.63310089 9.19381134 16.57430725 9.18788147 15.48342896 C9.17809265 14.52146606 9.16830383 13.55950317 9.15821838 12.56838989 C9.15176583 11.72955828 9.14531328 10.89072666 9.1386652 10.02647591 C9.12595614 7.93098702 9.12595614 7.93098702 8 6 C5.88984046 4.87293294 5.88984046 4.87293294 3.4375 3.875 C2.61121094 3.52179687 1.78492188 3.16859375 0.93359375 2.8046875 C0.29550781 2.53914063 -0.34257812 2.27359375 -1 2 C-0.67 1.34 -0.34 0.68 0 0 Z " fill="#367559" transform="translate(255,47)"/>
<path d="M0 0 C0.81758789 0.27626221 1.63517578 0.55252441 2.47753906 0.8371582 C5.02439806 1.72282137 7.54339067 2.66347805 10.0625 3.625 C10.92810547 3.94984375 11.79371094 4.2746875 12.68554688 4.609375 C14.79244496 5.40091682 16.89712802 6.19783722 19 7 C18.34 7.66 17.68 8.32 17 9 C11.3165321 8.62110214 6.31308708 6.22435055 1.18554688 3.90820312 C-7.77564584 0.23871182 -15.97975864 4.53659613 -24.5625 7.75 C-25.51979004 8.10199463 -26.47708008 8.45398926 -27.46337891 8.81665039 C-31.89230203 10.44966322 -36.30840496 12.11126935 -40.70703125 13.82421875 C-41.41722412 14.0984668 -42.12741699 14.37271484 -42.85913086 14.65527344 C-44.74020909 15.38519649 -46.61640471 16.12766796 -48.4921875 16.87109375 C-51.22447375 17.75041527 -53.37543466 18.24459682 -56.17578125 18.55859375 C-59.3177092 18.92124733 -61.47512171 19.36785931 -64.3125 20.625 C-68 22 -68 22 -71 21 C-69.45112777 20.42445239 -67.90224956 19.84892086 -66.35334778 19.27345276 C-64.95516019 18.75388394 -63.55704028 18.23413297 -62.15898132 17.71421814 C-58.2400103 16.25723237 -54.31972564 14.80395267 -50.39697266 13.35717773 C-40.10586736 9.55724995 -40.10586736 9.55724995 -29.87745667 5.59265137 C-28.02818972 4.85878152 -26.1749045 4.13506288 -24.3215332 3.41162109 C-22.07940658 2.53395646 -19.84430765 1.63804728 -17.61791992 0.72119141 C-10.95102612 -1.86012445 -6.72751062 -2.47213077 0 0 Z " fill="#2C644B" transform="translate(159,10)"/>
<path d="M0 0 C0.66 0.66 1.32 1.32 2 2 C1.67 10.25 1.34 18.5 1 27 C18.49 27 35.98 27 54 27 C54 19.74 54 12.48 54 5 C59.67646212 10.67646212 56 20.97227028 56 29 C36.86 29 17.72 29 -2 29 C-2 7.625 -2 7.625 0 0 Z " fill="#2C674B" transform="translate(124,91)"/>
<path d="M0 0 C0 0.66 0 1.32 0 2 C1.32 2.66 2.64 3.32 4 4 C3.3915625 3.855625 2.783125 3.71125 2.15625 3.5625 C-13.05153391 0.34202811 -27.29177393 0.74268893 -40.6171875 9.28515625 C-53.02291378 18.21321172 -57.40694217 30.71231122 -61 45 C-61.33 45 -61.66 45 -62 45 C-62.8960748 33.12700884 -57.25479693 22.33390702 -49.8125 13.36328125 C-36.11691078 -1.31997066 -18.98683751 -4.61285423 0 0 Z " fill="#2F6D4F" transform="translate(165,54)"/>
<path d="M0 0 C9.94727445 2.7472452 19.49595226 6.50596717 29.125 10.1875 C30.86185735 10.84862739 32.59883556 11.5094374 34.3359375 12.16992188 C38.55869468 13.77628984 42.77979027 15.38695196 47 17 C46.34 17.66 45.68 18.32 45 19 C40.98835843 18.6279738 37.44321888 17.56922232 33.69140625 16.14453125 C32.20930664 15.58560181 32.20930664 15.58560181 30.69726562 15.01538086 C29.66279297 14.61843018 28.62832031 14.22147949 27.5625 13.8125 C26.50095703 13.40974854 25.43941406 13.00699707 24.34570312 12.59204102 C16.19284174 9.48769178 8.07561355 6.30013054 0 3 C0 2.01 0 1.02 0 0 Z " fill="#2A644D" transform="translate(197,25)"/>
<path d="M0 0 C1.78903061 2.64094994 2.0077255 3.91480789 1.71484375 7.14453125 C-1.71870503 23.34605038 -6.73660327 39.10490491 -16 53 C-16.66 53 -17.32 53 -18 53 C-16.46391195 48.98659347 -14.63545625 45.17258949 -12.75 41.3125 C-6.47905562 28.08482973 -2.42420848 14.41766096 0 0 Z " fill="#2F6E52" transform="translate(264,170)"/>
<path d="M0 0 C1.10546875 1.75 1.10546875 1.75 2 4 C1.42578125 6 1.42578125 6 0.3125 8 C-0.26177734 9.03640625 -0.26177734 9.03640625 -0.84765625 10.09375 C-2.1188181 12.19655333 -3.33581658 14.18452718 -5 16 C-5.66 16 -6.32 16 -7 16 C-7.33 16.99 -7.66 17.98 -8 19 C-13.09547306 23.28153535 -20.13818583 28.11091591 -27.0546875 27.953125 C-29 27.6875 -29 27.6875 -32 27 C-28.85068462 25.34679644 -25.63194989 24.083871 -22.3125 22.8125 C-12.07499241 18.52297185 -5.89926642 13.0085014 -1 3 C-0.67 2.01 -0.34 1.02 0 0 Z " fill="#30674C" transform="translate(211,193)"/>
<path d="M0 0 C3.9881741 0.56973916 6.62446673 1.83619662 10 4 C10.66 4.28875 11.32 4.5775 12 4.875 C19.46320794 9.07305447 26.52303554 18.96624756 29 27 C28.625 30.8125 28.625 30.8125 28 34 C26.36614392 31.54921588 25.34642208 29.55834877 24.25 26.875 C19.1119754 15.26268799 11.34997287 6.79573083 0 1 C0 0.67 0 0.34 0 0 Z " fill="#21503C" transform="translate(169,58)"/>
<path d="M0 0 C4.56283954 1.35651986 5.69091874 2.95910779 8 7 C9.65788785 8.34423339 11.32576317 9.67618483 13 11 C14.57682801 12.79925211 16.08468844 14.63662028 17.5703125 16.51171875 C19.03881631 18.27131667 19.03881631 18.27131667 22 19 C23.421875 20.77734375 23.421875 20.77734375 24.75 22.9375 C25.19859375 23.64777344 25.6471875 24.35804688 26.109375 25.08984375 C26.55023438 26.03537109 26.55023438 26.03537109 27 27 C26.67 27.66 26.34 28.32 26 29 C16.17305963 20.20747441 6.66045865 11.5475444 0 0 Z " fill="#427350" transform="translate(58,228)"/>
<path d="M0 0 C0.33 0 0.66 0 1 0 C1 15.51 1 31.02 1 47 C0.67 47 0.34 47 0 47 C0 44.69 0 42.38 0 40 C-0.66 40 -1.32 40 -2 40 C-1.88206661 34.46395625 -1.75784219 28.92810387 -1.62768555 23.39233398 C-1.58427067 21.50760782 -1.54260057 19.62284064 -1.50268555 17.73803711 C-1.44514107 15.03486751 -1.38140196 12.33190564 -1.31640625 9.62890625 C-1.29969376 8.78099014 -1.28298126 7.93307404 -1.26576233 7.0594635 C-1.11387171 1.11387171 -1.11387171 1.11387171 0 0 Z " fill="#1A442F" transform="translate(216,136)"/>
<path d="M0 0 C0.33 0 0.66 0 1 0 C1 6.27 1 12.54 1 19 C1.66 18.67 2.32 18.34 3 18 C8.03764262 17.44026193 12.46483977 16.95329984 16.75 19.875 C18.56125392 24.4031348 17.84328584 28.27943252 17 33 C16.67 33 16.34 33 16 33 C15.67 30.03 15.34 27.06 15 24 C14.34 24 13.68 24 13 24 C12.67 23.34 12.34 22.68 12 22 C9.19019327 21.30772968 9.19019327 21.30772968 5.9375 20.875 C3.978125 20.58625 2.01875 20.2975 0 20 C0 13.4 0 6.8 0 0 Z " fill="#1F4938" transform="translate(198,100)"/>
<path d="M0 0 C2.21602736 1.82974736 3.39411054 3.56526436 5 6 C4.01 6.33 3.02 6.66 2 7 C1.484375 6.34 0.96875 5.68 0.4375 5 C-1.93019475 2.71661832 -1.93019475 2.71661832 -5.4375 2.4375 C-9.8424087 3.1330119 -11.12254576 4.71148087 -14 8 C-14.66 8 -15.32 8 -16 8 C-16.33 8.99 -16.66 9.98 -17 11 C-16.71998862 6.98650355 -16.24236211 5.27964858 -13.5625 2.1875 C-9.12021933 -1.60469082 -5.54772322 -1.60692673 0 0 Z " fill="#3C7353" transform="translate(158,143)"/>
<path d="M0 0 C0.97130859 -0.01224609 1.94261719 -0.02449219 2.94335938 -0.03710938 C3.87083984 -0.03904297 4.79832031 -0.04097656 5.75390625 -0.04296875 C7.02923218 -0.04913208 7.02923218 -0.04913208 8.33032227 -0.05541992 C10.4375 0.1875 10.4375 0.1875 12.4375 2.1875 C7.74636953 3.53309608 3.15887605 3.37157258 -1.6875 3.375 C-3.06615234 3.39336914 -3.06615234 3.39336914 -4.47265625 3.41210938 C-5.78943359 3.41500977 -5.78943359 3.41500977 -7.1328125 3.41796875 C-7.93477051 3.42207764 -8.73672852 3.42618652 -9.56298828 3.43041992 C-11.5625 3.1875 -11.5625 3.1875 -13.5625 1.1875 C-9.08780163 -0.30406612 -4.68663221 0.00312234 0 0 Z " fill="#3B7855" transform="translate(161.5625,220.8125)"/>
<path d="M0 0 C0.33 0 0.66 0 1 0 C2.02127326 5.87673854 2.13007966 11.57076796 2.09765625 17.52734375 C2.0962413 18.51626114 2.09482635 19.50517853 2.09336853 20.52406311 C2.08780088 23.66190704 2.0752544 26.79967787 2.0625 29.9375 C2.05748082 32.07356667 2.05291864 34.20963447 2.04882812 36.34570312 C2.03784206 41.56382675 2.02113636 46.78190815 2 52 C1.67 52 1.34 52 1 52 C0.67 38.8 0.34 25.6 0 12 C-0.33 12 -0.66 12 -1 12 C-1.02687279 10.18757948 -1.04633715 8.37504767 -1.0625 6.5625 C-1.07410156 5.55316406 -1.08570313 4.54382813 -1.09765625 3.50390625 C-1 1 -1 1 0 0 Z " fill="#398967" transform="translate(216,125)"/>
<path d="M0 0 C0.99 0.33 1.98 0.66 3 1 C-1.12853353 6.45304599 -5.41415706 11.7635328 -9.8125 17 C-10.29243408 17.57580811 -10.77236816 18.15161621 -11.2668457 18.74487305 C-14.76278308 22.88139154 -14.76278308 22.88139154 -17 24 C-16.41259178 20.88212019 -15.52702725 19.11416972 -13.41796875 16.7578125 C-12.89783203 16.16613281 -12.37769531 15.57445312 -11.84179688 14.96484375 C-11.29587891 14.35769531 -10.74996094 13.75054687 -10.1875 13.125 C-6.43608699 8.91653909 -3.01382846 4.77250317 0 0 Z " fill="#316B51" transform="translate(244,224)"/>
<path d="M0 0 C0.66 0.33 1.32 0.66 2 1 C3.12365904 7.16245711 3.12152558 13.25236973 3.0625 19.5 C3.05798828 20.4178125 3.05347656 21.335625 3.04882812 22.28125 C3.03716326 24.52090391 3.02079614 26.76041545 3 29 C2.34 29 1.68 29 1 29 C0.97494385 28.42967041 0.9498877 27.85934082 0.92407227 27.27172852 C0.80843451 24.70173843 0.68556376 22.13214473 0.5625 19.5625 C0.52318359 18.66466797 0.48386719 17.76683594 0.44335938 16.84179688 C0.40146484 15.98779297 0.35957031 15.13378906 0.31640625 14.25390625 C0.27974854 13.46314697 0.24309082 12.6723877 0.20532227 11.85766602 C0.19436743 9.98598559 0.19436743 9.98598559 -1 9 C-1.23728814 2.47457627 -1.23728814 2.47457627 0 0 Z " fill="#3D8764" transform="translate(198,90)"/>
<path d="M0 0 C-5.34605501 3.56403667 -11.76569019 5.95089907 -18.1875 6.5625 C-21.38961875 6.92995625 -23.40163695 7.44477734 -26.3125 8.625 C-30 10 -30 10 -33 9 C-29.69160763 7.6976401 -26.37761692 6.41013587 -23.0625 5.125 C-22.13630859 4.76019531 -21.21011719 4.39539063 -20.25585938 4.01953125 C-5.2808689 -1.76028963 -5.2808689 -1.76028963 0 0 Z " fill="#2A5E45" transform="translate(121,22)"/>
<path d="M0 0 C0.57878906 0.29132813 1.15757813 0.58265625 1.75390625 0.8828125 C3.15128212 1.57785511 4.55410655 2.26218163 5.96484375 2.9296875 C12.37794873 6.0028982 17.03261679 9.90189618 22 15 C22.598125 15.598125 23.19625 16.19625 23.8125 16.8125 C24.204375 17.204375 24.59625 17.59625 25 18 C20.7634366 16.51956521 17.26511824 14.32212984 13.625 11.75 C13.05499268 11.35103516 12.48498535 10.95207031 11.89770508 10.54101562 C7.70523119 7.57445669 3.75914667 4.49688062 0 1 C0 0.67 0 0.34 0 0 Z " fill="#32593F" transform="translate(87,258)"/>
<path d="M0 0 C0.33 0 0.66 0 1 0 C1.8125 2.5 1.8125 2.5 2 6 C0.98828125 7.58203125 0.98828125 7.58203125 -0.375 9.3125 C-4.76952524 15.50865886 -3.90872792 23.69823327 -4 31 C-3.34 31.33 -2.68 31.66 -2 32 C-2.99 32 -3.98 32 -5 32 C-7.10010606 24.8260377 -6.68863749 16.93385459 -4 10 C-3.484375 9.319375 -2.96875 8.63875 -2.4375 7.9375 C-0.54722071 5.38973226 -0.35332984 3.10930258 0 0 Z " fill="#468D64" transform="translate(164,159)"/>
<path d="M0 0 C2.0836309 0.14151828 4.16689938 0.28837936 6.25 0.4375 C7.99023438 0.55931641 7.99023438 0.55931641 9.765625 0.68359375 C12.30977376 0.93247787 14.55953248 1.28114942 17 2 C17 2.66 17 3.32 17 4 C18.32 4.66 19.64 5.32 21 6 C20.3915625 5.86722656 19.783125 5.73445313 19.15625 5.59765625 C10.79543974 3.91319889 2.4976283 3.40515668 -6 3 C-6 2.67 -6 2.34 -6 2 C-4.02 1.67 -2.04 1.34 0 1 C0 0.67 0 0.34 0 0 Z " fill="#2B654C" transform="translate(148,52)"/>
<path d="M0 0 C-4.74114285 5.47656764 -12.74949808 7.05817645 -19.6875 7.75 C-21.12405399 7.84830229 -22.56143974 7.93758958 -24 8 C-20.82981975 4.82981975 -16.72115084 3.8394807 -12.5625 2.3125 C-11.69044922 1.97927734 -10.81839844 1.64605469 -9.91992188 1.30273438 C-9.08138672 0.99271484 -8.24285156 0.68269531 -7.37890625 0.36328125 C-6.6113501 0.07751221 -5.84379395 -0.20825684 -5.05297852 -0.50268555 C-3 -1 -3 -1 0 0 Z " fill="#316146" transform="translate(67,41)"/>
<path d="M0 0 C0.33 0.66 0.66 1.32 1 2 C3.35599235 2.46751788 3.35599235 2.46751788 6.0625 2.625 C7.44115234 2.73714844 7.44115234 2.73714844 8.84765625 2.8515625 C9.55792969 2.90054688 10.26820313 2.94953125 11 3 C9 5 9 5 6.6796875 5.23046875 C1.03793011 5.14403514 -4.41880402 4.84244468 -10 4 C-6.3558226 1.5705484 -4.28758728 1.83820425 0 2 C0 1.34 0 0.68 0 0 Z " fill="#2C644B" transform="translate(151,71)"/>
<path d="M0 0 C1.09765625 1.75390625 1.09765625 1.75390625 2 4 C0.62307588 9.36893668 -2.95425448 13.40378176 -7 17 C-7.99 16.67 -8.98 16.34 -10 16 C-9.52949219 15.43152344 -9.05898437 14.86304688 -8.57421875 14.27734375 C-4.86192597 9.67348582 -2.01376553 5.56746941 0 0 Z " fill="#3A7A5C" transform="translate(211,193)"/>
<path d="M0 0 C-1.63516817 1.95282823 -2.55588737 2.90602111 -5.0859375 3.44140625 C-6.21902344 3.50134766 -6.21902344 3.50134766 -7.375 3.5625 C-10.97119324 3.83688487 -13.65650674 4.62326748 -17 6 C-17.99 5.67 -18.98 5.34 -20 5 C-17.42138975 3.96555751 -14.83825365 2.94727716 -12.25 1.9375 C-11.15558594 1.49567383 -11.15558594 1.49567383 -10.0390625 1.04492188 C-8.97558594 0.6340332 -8.97558594 0.6340332 -7.890625 0.21484375 C-7.24125977 -0.04176025 -6.59189453 -0.29836426 -5.92285156 -0.56274414 C-3.63367214 -1.08330284 -2.20743336 -0.72364304 0 0 Z " fill="#255843" transform="translate(154,9)"/>
<path d="M0 0 C1.07636719 0.04833984 2.15273437 0.09667969 3.26171875 0.14648438 C4.38964844 0.20255859 5.51757812 0.25863281 6.6796875 0.31640625 C7.81535156 0.36861328 8.95101562 0.42082031 10.12109375 0.47460938 C12.93255381 0.60455081 15.74368215 0.73952539 18.5546875 0.87890625 C18.5546875 1.20890625 18.5546875 1.53890625 18.5546875 1.87890625 C14.9722496 2.10515607 11.38883649 2.30677806 7.8046875 2.50390625 C6.78890625 2.56835938 5.773125 2.6328125 4.7265625 2.69921875 C3.25703125 2.7765625 3.25703125 2.7765625 1.7578125 2.85546875 C0.85708008 2.90783691 -0.04365234 2.96020508 -0.97167969 3.01416016 C-3.63448197 2.86856279 -5.17603729 2.2358402 -7.4453125 0.87890625 C-4.79709238 -0.44520381 -2.95593056 -0.14001776 0 0 Z " fill="#3B694B" transform="translate(129.4453125,220.12109375)"/>
<path d="M0 0 C-1.76220622 2.37514752 -3.13665364 3.82765287 -6.09375 4.41796875 C-7.66649536 4.55689459 -9.2409316 4.67777055 -10.81640625 4.78125 C-13.44823234 5.04490342 -15.56876716 5.99890413 -18 7 C-18.99 6.67 -19.98 6.34 -21 6 C-18.068542 4.79717903 -15.12902758 3.61545727 -12.1875 2.4375 C-11.35412109 2.09525391 -10.52074219 1.75300781 -9.66210938 1.40039062 C-8.45844727 0.92182617 -8.45844727 0.92182617 -7.23046875 0.43359375 C-6.49207764 0.13509521 -5.75368652 -0.16340332 -4.99291992 -0.47094727 C-3 -1 -3 -1 0 0 Z " fill="#27543E" transform="translate(88,33)"/>
<path d="M0 0 C2.7499231 2.37493359 4.04189302 4.48694108 5 8 C4.625 11.8125 4.625 11.8125 4 15 C2.1316788 12.19751821 1.54583465 10.69445074 0.875 7.5 C0.70742187 6.7265625 0.53984375 5.953125 0.3671875 5.15625 C0 3 0 3 0 0 Z " fill="#30775B" transform="translate(193,77)"/>
<path d="M0 0 C0.99 0.66 1.98 1.32 3 2 C0.87767021 3.17176518 -1.24757791 4.33754785 -3.375 5.5 C-3.97828125 5.83386719 -4.5815625 6.16773438 -5.203125 6.51171875 C-9.7734375 9 -9.7734375 9 -12 9 C-10.67708855 5.03126566 -9.08850262 4.70094963 -5.4375 2.8125 C-4.42558594 2.28269531 -3.41367188 1.75289063 -2.37109375 1.20703125 C-1.58863281 0.80871094 -0.80617187 0.41039062 0 0 Z " fill="#387252" transform="translate(184,277)"/>
<path d="M0 0 C1.6286551 0.42369072 3.25287378 0.8644623 4.875 1.3125 C5.77992188 1.55613281 6.68484375 1.79976562 7.6171875 2.05078125 C10 3 10 3 12 6 C11.01 6.66 10.02 7.32 9 8 C8.67 7.34 8.34 6.68 8 6 C5.88984046 4.87293294 5.88984046 4.87293294 3.4375 3.875 C2.61121094 3.52179687 1.78492188 3.16859375 0.93359375 2.8046875 C0.29550781 2.53914063 -0.34257812 2.27359375 -1 2 C-0.67 1.34 -0.34 0.68 0 0 Z " fill="#2B6852" transform="translate(255,47)"/>
<path d="M0 0 C0.28875 0.598125 0.5775 1.19625 0.875 1.8125 C2.04742026 4.19327792 2.04742026 4.19327792 4 7 C4.25 10.0625 4.25 10.0625 4 13 C3.34 13.66 2.68 14.32 2 15 C-0.08989546 9.68670645 -1.6112798 5.71271928 0 0 Z " fill="#42724D" transform="translate(41,186)"/>
<path d="M0 0 C1.32 0 2.64 0 4 0 C5.51953125 1.6796875 5.51953125 1.6796875 6.8125 3.875 C7.25207031 4.59429687 7.69164063 5.31359375 8.14453125 6.0546875 C8.42683594 6.69664062 8.70914063 7.33859375 9 8 C8.67 8.66 8.34 9.32 8 10 C6.65787938 8.90653119 5.32652025 7.7998425 4 6.6875 C3.2575 6.07261719 2.515 5.45773438 1.75 4.82421875 C0 3 0 3 0 0 Z " fill="#447551" transform="translate(76,247)"/>
<path d="M0 0 C2.45943295 4.9188659 2.15932336 7.58300589 2 13 C-1.63 13.33 -5.26 13.66 -9 14 C-8.01 13.67 -7.02 13.34 -6 13 C-6 12.34 -6 11.68 -6 11 C-4.02 11 -2.04 11 0 11 C0 7.37 0 3.74 0 0 Z " fill="#356D4C" transform="translate(102,107)"/>
<path d="M0 0 C0.66 0 1.32 0 2 0 C0.68 5.28 -0.64 10.56 -2 16 C-2.33 16 -2.66 16 -3 16 C-3.33266291 9.79029227 -2.45029331 5.71735105 0 0 Z " fill="#38805C" transform="translate(106,83)"/>
<path d="M0 0 C0.33 0 0.66 0 1 0 C1.19517554 1.93674185 1.38087873 3.87444009 1.5625 5.8125 C1.66691406 6.89144531 1.77132812 7.97039062 1.87890625 9.08203125 C2 12 2 12 1 15 C0.01 15 -0.98 15 -2 15 C-1.34 10.05 -0.68 5.1 0 0 Z " fill="#1F4E3B" transform="translate(214,178)"/>
<path d="M0 0 C0.66 0.66 1.32 1.32 2 2 C1.828125 4.05859375 1.828125 4.05859375 1.25 6.4375 C0.97929687 7.61119141 0.97929687 7.61119141 0.703125 8.80859375 C0 11 0 11 -2 14 C-2.66 14 -3.32 14 -4 14 C-3.79503906 13.32453125 -3.59007812 12.6490625 -3.37890625 11.953125 C-3.10949219 11.06109375 -2.84007812 10.1690625 -2.5625 9.25 C-2.16224609 7.92742187 -2.16224609 7.92742187 -1.75390625 6.578125 C-1.11531506 4.39434165 -0.53224167 2.21164502 0 0 Z " fill="#31785A" transform="translate(260,188)"/>
<path d="M0 0 C0 3 0 3 -2.375 5.6875 C-5 8 -5 8 -7 8 C-7.33 8.99 -7.66 9.98 -8 11 C-7.71915428 6.97454466 -7.21634296 5.25517374 -4.5625 2.125 C-2 0 -2 0 0 0 Z " fill="#2D5940" transform="translate(149,143)"/>
<path d="M0 0 C4.55519783 3.93963055 6.15451681 7.26928904 8 13 C7.01 13.495 7.01 13.495 6 14 C5.18247697 12.41925436 4.37118003 10.83528777 3.5625 9.25 C3.11003906 8.36828125 2.65757812 7.4865625 2.19140625 6.578125 C1.16544602 4.35801434 0.48491397 2.38555381 0 0 Z " fill="#2A684D" transform="translate(171,80)"/>
<path d="M0 0 C0 0.33 0 0.66 0 1 C-2.31 1 -4.62 1 -7 1 C-7 1.66 -7 2.32 -7 3 C-8.98 3 -10.96 3 -13 3 C-13.33 2.34 -13.66 1.68 -14 1 C-4.58997722 -1.48063781 -4.58997722 -1.48063781 0 0 Z " fill="#327E5E" transform="translate(149,53)"/>
<path d="M0 0 C5.445 1.485 5.445 1.485 11 3 C10.34 3.66 9.68 4.32 9 5 C5.24438133 4.67342446 2.26397448 3.8830622 -1 2 C-0.67 1.34 -0.34 0.68 0 0 Z " fill="#2A624C" transform="translate(244,43)"/>
<path d="M0 0 C3.8063457 0.67170806 7.35206816 1.72746564 11 3 C10.34 3.66 9.68 4.32 9 5 C6.8359375 4.7578125 6.8359375 4.7578125 4.375 4.125 C3.55773437 3.92132812 2.74046875 3.71765625 1.8984375 3.5078125 C1.27195313 3.34023438 0.64546875 3.17265625 0 3 C0 2.01 0 1.02 0 0 Z " fill="#29654C" transform="translate(178,18)"/>
<path d="M0 0 C2.82957829 0.36276645 5.29084291 1.09694764 8 2 C8.33 3.32 8.66 4.64 9 6 C5.37 4.68 1.74 3.36 -2 2 C-1.34 1.34 -0.68 0.68 0 0 Z " fill="#2E6D52" transform="translate(154,9)"/>
<path d="M0 0 C0.66 0.33 1.32 0.66 2 1 C2 4.3 2 7.6 2 11 C1.01 10.34 0.02 9.68 -1 9 C-1.4375 2.875 -1.4375 2.875 0 0 Z " fill="#2A6149" transform="translate(198,90)"/>
<path d="M0 0 C0.66 0 1.32 0 2 0 C1.61479436 2.53910197 1.29902057 3.72751123 -0.62890625 5.484375 C-1.26699219 5.90203125 -1.90507812 6.3196875 -2.5625 6.75 C-3.20316406 7.17796875 -3.84382812 7.6059375 -4.50390625 8.046875 C-5.24447266 8.51867187 -5.24447266 8.51867187 -6 9 C-6 6 -6 6 -4.125 3.8125 C-2 2 -2 2 0 2 C0 1.34 0 0.68 0 0 Z " fill="#337151" transform="translate(224,247)"/>
<path d="M0 0 C3.27481575 0.97359387 4.76205109 1.69066641 6.875 4.4375 C8 7 8 7 7 10 C5.83043409 8.52312468 4.66441854 7.04343707 3.5 5.5625 C2.8503125 4.73878906 2.200625 3.91507813 1.53125 3.06640625 C0 1 0 1 0 0 Z " fill="#30543A" transform="translate(58,228)"/>
<path d="M0 0 C0.66 0.66 1.32 1.32 2 2 C1.9765625 4.6015625 1.9765625 4.6015625 1.625 7.625 C1.51414062 8.62789062 1.40328125 9.63078125 1.2890625 10.6640625 C1.19367188 11.43492188 1.09828125 12.20578125 1 13 C-1.45410358 9.31884463 -1.23287843 7.34706402 -1 3 C-0.67 2.01 -0.34 1.02 0 0 Z " fill="#275A41" transform="translate(124,91)"/>
<path d="M0 0 C5.15464734 0.48324819 8.81550319 3.18610761 13 6 C12.67 6.66 12.34 7.32 12 8 C11.13375 7.401875 10.2675 6.80375 9.375 6.1875 C6.37380056 4.17955466 3.26224294 2.55344902 0 1 C0 0.67 0 0.34 0 0 Z " fill="#378461" transform="translate(166,55)"/>
<path d="M0 0 C1.0546875 1.859375 1.0546875 1.859375 2 4 C1.125 6.25 1.125 6.25 0 8 C-0.66 8 -1.32 8 -2 8 C-2.28875 8.639375 -2.5775 9.27875 -2.875 9.9375 C-4 12 -4 12 -6 13 C-5.71382812 12.43796875 -5.42765625 11.8759375 -5.1328125 11.296875 C-3.98584069 8.97129077 -2.92160206 6.62229799 -1.875 4.25 C-1.52179688 3.45078125 -1.16859375 2.6515625 -0.8046875 1.828125 C-0.53914062 1.22484375 -0.27359375 0.6215625 0 0 Z " fill="#193427" transform="translate(211,193)"/>
<path d="M0 0 C-2.97 1.65 -5.94 3.3 -9 5 C-9 4.01 -9 3.02 -9 2 C-5.3823098 -0.81375904 -4.61553765 -1.15388441 0 0 Z " fill="#367153" transform="translate(201,270)"/>
<path d="M0 0 C0.33 1.32 0.66 2.64 1 4 C-1.97 6.475 -1.97 6.475 -5 9 C-4.42647107 5.12867972 -2.51295648 2.91827204 0 0 Z " fill="#397659" transform="translate(232,239)"/>
<path d="M0 0 C0.99 0.66 1.98 1.32 3 2 C-2.625 5 -2.625 5 -6 5 C-6 4.34 -6 3.68 -6 3 C-4.02 2.01 -2.04 1.02 0 0 Z " fill="#3A7451" transform="translate(161,289)"/>
<path d="M0 0 C0.66 0.33 1.32 0.66 2 1 C2.1875 4.375 2.1875 4.375 2 8 C1.01 8.66 0.02 9.32 -1 10 C-0.67 6.7 -0.34 3.4 0 0 Z " fill="#68B07B" transform="translate(38,163)"/>
<path d="M0 0 C0.99 0 1.98 0 3 0 C2.34 1.98 1.68 3.96 1 6 C0.01 6 -0.98 6 -2 6 C-1.125 1.125 -1.125 1.125 0 0 Z " fill="#245840" transform="translate(127,85)"/>
<path d="M0 0 C2.64 0.66 5.28 1.32 8 2 C7.34 2.66 6.68 3.32 6 4 C2.875 3.625 2.875 3.625 0 3 C0 2.01 0 1.02 0 0 Z " fill="#266149" transform="translate(189,22)"/>
<path d="M0 0 C1.98 0 3.96 0 6 0 C6 0.99 6 1.98 6 3 C4.02 3 2.04 3 0 3 C0 2.01 0 1.02 0 0 Z " fill="#488160" transform="translate(149,142)"/>
<path d="M0 0 C1.32 0.33 2.64 0.66 4 1 C3.67 3.31 3.34 5.62 3 8 C1.0549 5.08235 0.54723683 3.37462715 0 0 Z " fill="#1D4433" transform="translate(194,84)"/>
<path d="M0 0 C2.97 0.33 5.94 0.66 9 1 C8.34 1.66 7.68 2.32 7 3 C3.9375 2.75 3.9375 2.75 1 2 C0.67 1.34 0.34 0.68 0 0 Z " fill="#28644C" transform="translate(169,16)"/>
<path d="" fill="#393939" transform="translate(0,0)"/>
</svg>
